# xmcd
#
# Track frame offsets:
#	150
#	10995
#	27480
#	43950
#	60420
#	75758
#	91156
#	107221
#	122461
#
# Disc length: 1857 seconds
#
# Revision: 1
# Processed by: cddbd v1.5.2PL0 Copyright (c) Steve Scherf et al.
# Submitted via: audiograbber 1.83.01
#
DISCID=63073f09
DTITLE=The Judds - Heartland
DYEAR=1987
DGENRE=Country
TTITLE0=Don't Be Cruel
TTITLE1=I'm Falling In Love Tonight
TTITLE2=Turn It Loose
TTITLE3=Old Pictures
TTITLE4=Cow Cow Boogie
TTITLE5=Maybe Your Baby's Got The Blues
TTITLE6=I Know Where I'm Going
TTITLE7=Why Don't You Believe Me
TTITLE8=The Sweetest Gift
EXTD=
EXTT0=
EXTT1=
EXTT2=
EXTT3=
EXTT4=
EXTT5=
EXTT6=
EXTT7=
EXTT8=
PLAYORDER=
